<svg xmlns="http://www.w3.org/2000/svg" width="20" height="21" viewBox="0 0 20 21">
  <defs>
    <linearGradient id="ic_foldertree_folder_expand-a" x1="50%" x2="50%" y1="0%" y2="100%">
      <stop offset="0%" stop-color="#E69101"/>
      <stop offset="100%" stop-color="#E6A301"/>
    </linearGradient>
    <linearGradient id="ic_foldertree_folder_expand-b" x1="50%" x2="50%" y1="0%" y2="99.394%">
      <stop offset="0%" stop-color="#FFA100"/>
      <stop offset="100%" stop-color="#FFB501"/>
    </linearGradient>
  </defs>
  <g fill="none" fill-rule="evenodd" transform="translate(0 1)">
    <path fill="url(#ic_foldertree_folder_expand-a)" d="M1,4.71428571 C1,3.76751186 1.76751186,3 2.71428571,3 L6.73481197,3 C7.4088191,3 8.02028095,3.3949561 8.29744577,4.00933813 L8.744,5 L15.2857143,5 C16.2324881,5 17,5.76751186 17,6.71428571 L17,15.2857143 C17,16.2324881 16.2324881,17 15.2857143,17 L2.71428571,17 C1.76751186,17 1,16.2324881 1,15.2857143 L1,4.71428571 Z"/>
    <path fill="url(#ic_foldertree_folder_expand-b)" d="M5.23558723,8 L17.6215556,8 C18.5683295,8 19.3358413,8.76751186 19.3358413,9.71428571 C19.3358413,9.89854074 19.3061364,10.0815908 19.2478698,10.2563905 L17.390727,15.827819 C17.1573886,16.5278341 16.5022935,17 15.7644128,17 L3.37844438,17 C2.43167052,17 1.66415866,16.2324881 1.66415866,15.2857143 C1.66415866,15.1014593 1.6938636,14.9184092 1.75213015,14.7436095 L3.60927301,9.17218097 C3.84261137,8.47216588 4.49770653,8 5.23558723,8 Z"/>
  </g>
</svg>
