<svg width="375" height="330" viewBox="0 0 375 330" fill="none" xmlns="http://www.w3.org/2000/svg">
<path d="M36.0964 125.977L217.346 176.599V330L36.0964 279.378V125.977Z" fill="#CDEFF7"/>
<path d="M36.0962 125.977L217.345 176.599L181.249 244.862L0 194.24L36.0962 125.977Z" fill="#E2F6FC"/>
<path d="M181.249 122.142L362.498 172.764L335.618 125.977L154.369 75.3545L181.249 122.142Z" fill="#B4E5E8"/>
<path d="M335.618 125.977L217.345 176.599V330L335.618 279.378V125.977Z" fill="#E2F6FC"/>
<path d="M36.0964 125.977L217.346 176.599L335.618 125.977L154.369 75.3545L36.0964 125.977Z" fill="url(#paint0_radial_8_303)"/>
<rect width="10.0948" height="15.1324" transform="matrix(0.866307 -0.499511 0.500489 0.865743 117.533 69.0219)" fill="#E1F5FC"/>
<rect width="7.80159" height="15.1287" transform="matrix(0.969065 0.246806 -0.24741 0.968911 31.3113 77.0602)" fill="#E1F5FC"/>
<rect width="9.74707" height="19.3622" rx="3.37174" transform="matrix(0.707567 0.706646 -0.707567 0.706646 289.166 43.4504)" fill="#E1F5FC"/>
<rect width="15.51" height="17.3459" rx="3.37174" transform="matrix(0.865441 0.501011 -0.50199 0.864874 60.4985 38.7826)" fill="#B1DBE5"/>
<rect width="10.1636" height="11.3667" rx="3.37174" transform="matrix(0.865441 0.501011 -0.50199 0.864874 366.204 57.8858)" fill="#B1DBE5"/>
<rect width="3.02458" height="11.3653" transform="matrix(0.916243 -0.400624 0.401501 0.915859 199.438 1.21173)" fill="#B1DBE5"/>
<path d="M4.12012 72.2307L5.3485 69.4697L15.7461 74.0836L14.5177 76.8446L4.12012 72.2307Z" fill="#E1F5FC"/>
<path d="M231.125 26.9151C230.94 28.8504 229.16 30.228 227.24 29.9229L217.441 28.3659C214.477 27.895 213.558 24.0781 215.983 22.3109L226.679 14.5165C229.029 12.8044 232.299 14.6697 232.022 17.5637L231.125 26.9151Z" fill="#B4E5E8"/>
<path d="M282.244 109.641C283.512 111.173 283.184 113.461 281.537 114.577L275.72 118.517C273.318 120.143 270.117 118.184 270.479 115.308L271.676 105.785C272.045 102.855 275.741 101.782 277.625 104.058L282.244 109.641Z" fill="#B4DDE6"/>
<path d="M345.351 35.3475L356.006 42.107L349.814 47.1395L345.351 35.3475Z" fill="#CDEFF6"/>
<ellipse cx="3.27105" cy="3.26786" rx="3.27105" ry="3.26786" transform="matrix(0.935567 -0.35315 0.353956 0.935262 188.315 54.5875)" fill="#B9DFE7"/>
<ellipse cx="6.88839" cy="6.88166" rx="6.88839" ry="6.88166" transform="matrix(0.935567 -0.35315 0.353956 0.935262 139.034 110.105)" fill="#CDEFF6"/>
<ellipse cx="3.27105" cy="3.26786" rx="3.27105" ry="3.26786" transform="matrix(0.935567 -0.35315 0.353956 0.935262 242.287 130.269)" fill="#B4DDE6"/>
<ellipse cx="4.73243" cy="4.7278" rx="4.73243" ry="4.7278" transform="matrix(0.935567 -0.35315 0.353956 0.935262 47.6365 22.9467)" fill="#CDEFF6"/>
<ellipse cx="3.78223" cy="3.78643" rx="3.78223" ry="3.78643" transform="matrix(0.273914 -0.961754 0.961942 0.273254 296.277 69.3545)" fill="#B4E5E8"/>
<defs>
<radialGradient id="paint0_radial_8_303" cx="0" cy="0" r="1" gradientUnits="userSpaceOnUse" gradientTransform="translate(182.785 75.3545) rotate(77.3362) scale(102.235 302.413)">
<stop stop-color="white"/>
<stop offset="1" stop-color="#B7E5EF"/>
</radialGradient>
</defs>
</svg>
