<svg width="300" height="228" viewBox="0 0 300 228" fill="none" xmlns="http://www.w3.org/2000/svg">
<g clip-path="url(#clip0_27_12)">
<path d="M38.5867 0H277.887C290.078 0 299.968 9.89078 299.968 22.081V184.082C299.968 196.272 290.078 206.163 277.887 206.163H38.5867C26.3964 206.163 16.5056 196.272 16.5056 184.082V22.081C16.5056 9.89078 26.3964 0 38.5867 0Z" fill="url(#paint0_linear_27_12)"/>
<path d="M110.594 76.0708C110.594 89.1115 100.01 99.6953 86.9697 99.6953C73.929 99.6953 63.3452 89.1115 63.3452 76.0708C63.3452 63.0301 73.929 52.4464 86.9697 52.4464C100.01 52.4464 110.594 63.0301 110.594 76.0708Z" fill="#606060"/>
<path d="M300 145.968V184.082C300 196.304 290.109 206.194 277.887 206.194H76.386L217.881 76.0708L299.969 145.968H300Z" fill="#606060"/>
<path d="M41.8311 142.796L1.29146 213.008C-2.39397 219.402 2.20494 227.403 9.60729 227.403H90.6867C98.089 227.403 102.688 219.402 99.0025 213.008L58.4628 142.796C54.7774 136.401 45.5166 136.401 41.8311 142.796Z" fill="#CE1717"/>
<path d="M51.7217 169.586H48.5718C46.8321 169.586 45.4219 170.996 45.4219 172.735V194.785C45.4219 196.525 46.8321 197.935 48.5718 197.935H51.7217C53.4614 197.935 54.8717 196.525 54.8717 194.785V172.735C54.8717 170.996 53.4614 169.586 51.7217 169.586Z" fill="white"/>
<path d="M51.7217 206.125H48.5718C46.8321 206.125 45.4219 207.535 45.4219 209.275V212.425C45.4219 214.164 46.8321 215.574 48.5718 215.574H51.7217C53.4614 215.574 54.8717 214.164 54.8717 212.425V209.275C54.8717 207.535 53.4614 206.125 51.7217 206.125Z" fill="white"/>
</g>
<defs>
<linearGradient id="paint0_linear_27_12" x1="16.5056" y1="103.097" x2="300" y2="103.097" gradientUnits="userSpaceOnUse">
<stop stop-color="white"/>
<stop offset="0.58" stop-color="white" stop-opacity="0.85"/>
<stop offset="1" stop-color="white" stop-opacity="0.75"/>
</linearGradient>
<clipPath id="clip0_27_12">
<rect width="300" height="228" fill="white"/>
</clipPath>
</defs>
</svg>
