<?xml version="1.0" encoding="UTF-8"?>
<svg width="24px" height="24px" viewBox="0 0 24 24" version="1.1" xmlns="http://www.w3.org/2000/svg"
    xmlns:xlink="http://www.w3.org/1999/xlink">
    <g id="Symbols" stroke="none" stroke-width="1" fill="none" fill-rule="evenodd">
        <g id="icon/menu_about" fill-rule="nonzero">
            <path d="M12,3 C7.05,3 3,7.05 3,12 C3,16.95 7.05,21 12,21 C16.95,21 21,16.95 21,12 C21,7.05 16.95,3 12,3 Z"
                id="Path" stroke="#4C4C4C" stroke-width="1.5"></path>
            <path
                d="M12.078125,8.0859375 C12.3645833,8.0859375 12.6119792,7.99348958 12.8203125,7.80859375 C13.0286458,7.62369792 13.1328125,7.3671875 13.1328125,7.0390625 C13.1328125,6.70052083 13.0260417,6.44270833 12.8125,6.265625 C12.5989583,6.08854167 12.3541667,6 12.078125,6 C11.7916667,6 11.5403646,6.09765625 11.3242188,6.29296875 C11.1080729,6.48828125 11,6.73697917 11,7.0390625 C11,7.37239583 11.1054688,7.63020833 11.3164062,7.8125 C11.5273438,7.99479167 11.78125,8.0859375 12.078125,8.0859375 Z M11.989011,17.671875 C12.2820513,17.671875 12.5238095,17.5625 12.7142857,17.34375 C12.9047619,17.125 13,16.8020833 13,16.375 L13,16.375 L13,10.2109375 C13,9.83072917 12.9047619,9.53385417 12.7142857,9.3203125 C12.5238095,9.10677083 12.2820513,9 11.989011,9 C11.6959707,9 11.4578755,9.10677083 11.2747253,9.3203125 C11.0915751,9.53385417 11,9.8515625 11,10.2734375 L11,10.2734375 L11,16.375 C11,16.7916667 11.0915751,17.1119792 11.2747253,17.3359375 C11.4578755,17.5598958 11.6959707,17.671875 11.989011,17.671875 Z"
                id="i" fill="#4C4C4C"></path>
        </g>
    </g>
</svg>