<?xml version="1.0" encoding="utf-8"?>
<!-- Generator: Adobe Illustrator 27.0.0, SVG Export Plug-In . SVG Version: 6.00 Build 0)  -->
<svg version="1.1" id="圖層_1" xmlns="http://www.w3.org/2000/svg" xmlns:xlink="http://www.w3.org/1999/xlink" x="0px" y="0px"
	 viewBox="0 0 24 24" style="enable-background:new 0 0 24 24;" xml:space="preserve">
<g id="fullscreen_off">
	<path d="M9.4,4.4C9,4.4,8.7,4.7,8.7,5v3.8H5C4.7,8.7,4.4,9,4.4,9.4C4.4,9.7,4.7,10,5,10h4.4C9.7,10,10,9.7,10,9.4V5
		C10,4.7,9.7,4.4,9.4,4.4z"/>
	<path d="M14.6,10H19c0.3,0,0.6-0.3,0.6-0.6c0-0.3-0.3-0.6-0.6-0.6h-3.7V5c0-0.3-0.3-0.6-0.6-0.6C14.3,4.4,14,4.7,14,5v4.4
		C14,9.7,14.3,10,14.6,10z"/>
	<path d="M19,14h-4.4c-0.3,0-0.6,0.3-0.6,0.6V19c0,0.3,0.3,0.6,0.6,0.6s0.6-0.3,0.6-0.6v-3.8H19c0.3,0,0.6-0.3,0.6-0.6
		C19.6,14.3,19.3,14,19,14z"/>
	<path d="M9.4,14H5c-0.3,0-0.6,0.3-0.6,0.6s0.3,0.6,0.6,0.6h3.7V19c0,0.3,0.3,0.6,0.6,0.6S10,19.3,10,19v-4.4C10,14.3,9.7,14,9.4,14
		z"/>
</g>
</svg>
