<?xml version="1.0" encoding="UTF-8"?>
<svg width="32px" height="32px" viewBox="0 0 32 32" version="1.1" xmlns="http://www.w3.org/2000/svg"
    xmlns:xlink="http://www.w3.org/1999/xlink">
    <g id="Symbols" stroke="none" stroke-width="1" fill="none" fill-rule="evenodd">
        <g id="ic_header_pano">
            <path
                d="M9.43592142,18 C9.8222638,18 10.1750468,17.9340369 10.4942703,17.8021108 C10.8134939,17.6701847 11.0893358,17.4872471 11.3217961,17.2532982 C11.5542563,17.0193492 11.7302385,16.7528584 11.8497428,16.4538259 C11.969247,16.1547933 12.0289991,15.8452067 12.0289991,15.525066 C12.0289991,15.2576957 11.9847989,15.0087951 11.8963985,14.7783641 C11.8079981,14.5479332 11.6762161,14.3377309 11.5010524,14.1477573 C11.3258887,13.9577836 11.1106174,13.7889182 10.8552385,13.6411609 C11.1204397,13.4019349 11.3242516,13.1565523 11.4666745,12.9050132 C11.6090973,12.6534741 11.6803087,12.351803 11.6803087,12 C11.6803087,11.7326297 11.6311974,11.4828496 11.5329747,11.2506596 C11.4347521,11.0184697 11.2890552,10.8144239 11.095884,10.6385224 C10.9027128,10.4626209 10.6751637,10.3280563 10.4132367,10.2348285 C10.1513096,10.1416007 9.86155285,10.0949868 9.54396632,10.0949868 C9.18054256,10.0949868 8.85149673,10.1503958 8.55682881,10.2612137 C8.2621609,10.3720317 8.01578578,10.5189094 7.81770346,10.701847 C7.61962114,10.8847845 7.4690131,11.0773967 7.36587933,11.2796834 C7.26274556,11.4819701 7.21117867,11.6745822 7.21117867,11.8575198 C7.21117867,12.0474934 7.26601964,12.1996482 7.37570159,12.3139842 C7.48538354,12.4283201 7.60570627,12.4854881 7.73666978,12.4854881 C7.84798877,12.4854881 7.94621141,12.4643799 8.0313377,12.4221636 C8.11646399,12.3799472 8.17539757,12.3218997 8.20813845,12.2480211 C8.26379794,12.1108179 8.32518709,11.9648197 8.39230589,11.8100264 C8.4594247,11.6552331 8.53063611,11.528584 8.60594013,11.4300792 C8.68124415,11.3315743 8.7835594,11.2524186 8.91288587,11.1926121 C9.04221235,11.1328056 9.20673527,11.1029024 9.40645463,11.1029024 C9.70112254,11.1029024 9.93521983,11.2005277 10.1087465,11.3957784 C10.2822732,11.591029 10.3690365,11.8240985 10.3690365,12.0949868 C10.3690365,12.4503078 10.2601731,12.7229551 10.0424462,12.9129288 C9.82471936,13.1029024 9.5652479,13.1978892 9.26403181,13.1978892 L9.26403181,13.1978892 L9.0626754,13.1978892 C8.83021515,13.1978892 8.65505145,13.2497801 8.53718428,13.353562 C8.41931712,13.4573439 8.36038354,13.5936675 8.36038354,13.762533 C8.36038354,13.9349164 8.40949486,14.0694811 8.50771749,14.1662269 C8.60594013,14.2629727 8.74508887,14.3113456 8.9251637,14.3113456 C8.96445276,14.3113456 9.05285313,14.3043096 9.19036483,14.2902375 C9.32787652,14.2761653 9.42937325,14.2691293 9.494855,14.2691293 C9.86810103,14.2691293 10.1594949,14.3861038 10.3690365,14.6200528 C10.5785781,14.8540018 10.6833489,15.176781 10.6833489,15.5883905 C10.6833489,15.8663149 10.6219598,16.1108179 10.4991815,16.3218997 C10.3764032,16.5329815 10.220884,16.6921724 10.0326239,16.7994723 C9.84436389,16.9067722 9.64873714,16.9604222 9.44574369,16.9604222 C9.09214219,16.9604222 8.81793732,16.8416887 8.62312909,16.6042216 C8.42832086,16.3667546 8.24579046,16.003518 8.07553789,15.5145119 C8.04934518,15.4335972 7.99368569,15.3641161 7.9085594,15.3060686 C7.82343312,15.2480211 7.73503274,15.2189974 7.64335828,15.2189974 C7.46000935,15.2189974 7.30694574,15.2814424 7.18416745,15.4063325 C7.06138915,15.5312225 7,15.6956904 7,15.8997361 C7,16.0580475 7.05156688,16.2585752 7.15470065,16.5013193 C7.25783442,16.7440633 7.41007951,16.9788918 7.61143592,17.2058047 C7.81279233,17.4327177 8.06898971,17.6218118 8.38002806,17.7730871 C8.69106642,17.9243624 9.04303087,18 9.43592142,18 Z M15.6043031,18 C16.0823199,18 16.5104069,17.8865435 16.8885641,17.6596306 C17.2667212,17.4327177 17.5613891,17.1169745 17.7725678,16.7124011 C17.9837465,16.3078276 18.0893358,15.8575198 18.0893358,15.3614776 C18.0893358,15.0202287 18.0353134,14.6930519 17.9272685,14.3799472 C17.8192236,14.0668426 17.66616,13.7950748 17.4680776,13.5646438 C17.2699953,13.3342128 17.0391721,13.1565523 16.775608,13.0316623 C16.512044,12.9067722 16.2247428,12.8443272 15.9137044,12.8443272 C15.5895697,12.8443272 15.2965388,12.9129288 15.0346118,13.0501319 C14.7726848,13.1873351 14.5304022,13.3984169 14.3077643,13.6833773 C14.3503274,12.7264732 14.4911132,12.0615655 14.7301216,11.6886544 C14.8479888,11.5057168 14.9928672,11.3605981 15.1647568,11.2532982 C15.3366464,11.1459982 15.5093545,11.0923483 15.6828812,11.0923483 C15.898971,11.0923483 16.0888681,11.1565523 16.2525725,11.2849604 C16.4162769,11.4133685 16.5357811,11.5831135 16.6110851,11.7941953 C16.6667446,11.9595427 16.753508,12.0888303 16.8713751,12.182058 C16.9892423,12.2752858 17.1169317,12.3218997 17.2544434,12.3218997 C17.4115996,12.3218997 17.5409261,12.2629727 17.6424228,12.1451187 C17.7439196,12.0272647 17.7946679,11.8962181 17.7946679,11.7519789 C17.7946679,11.5127529 17.7136342,11.2629727 17.5515669,11.0026385 C17.3894995,10.7423043 17.1488541,10.5241865 16.8296305,10.348285 C16.5104069,10.1723835 16.1412535,10.0844327 15.7221703,10.0844327 C15.2867166,10.0844327 14.8987371,10.1723835 14.558232,10.348285 C14.2177268,10.5241865 13.9279701,10.7845207 13.6889616,11.1292876 C13.4499532,11.4740545 13.2666043,11.9085312 13.1389149,12.4327177 C13.0112254,12.9569041 12.9473807,13.5514512 12.9473807,14.2163588 C12.9473807,15.0325418 13.0529701,15.7229551 13.2641487,16.2875989 C13.4753274,16.8522427 13.7806361,17.2788039 14.1800748,17.5672823 C14.5795136,17.8557608 15.0542563,18 15.6043031,18 Z M15.6337699,16.9604222 C15.2867166,16.9604222 14.9985968,16.8021108 14.7694107,16.4854881 C14.5402245,16.1688654 14.4256314,15.7730871 14.4256314,15.298153 C14.4256314,15.0026385 14.4821094,14.7449428 14.5950655,14.525066 C14.7080215,14.3051891 14.8569925,14.1372032 15.0419785,14.0211082 C15.2269645,13.9050132 15.4209542,13.8469657 15.6239476,13.8469657 C15.8367633,13.8469657 16.0315716,13.9076517 16.2083723,14.0290237 C16.3851731,14.1503958 16.5243218,14.3262973 16.6258185,14.5567282 C16.7273152,14.7871592 16.7780636,15.062445 16.7780636,15.3825858 C16.7780636,15.8540018 16.6700187,16.2348285 16.4539289,16.525066 C16.2378391,16.8153034 15.9644528,16.9604222 15.6337699,16.9604222 Z M21.4583723,17.9894459 C21.8905519,17.9894459 22.2834425,17.876869 22.637044,17.651715 C22.9906455,17.4265611 23.2787652,17.1064204 23.5014032,16.6912929 C23.6782039,16.353562 23.7993452,15.9771328 23.8648269,15.5620053 C23.9303087,15.1468777 23.9630496,14.6508355 23.9630496,14.0738786 C23.9630496,13.0114336 23.8386342,12.1899736 23.5898036,11.6094987 C23.4457437,11.2752858 23.2697615,10.994723 23.0618569,10.76781 C22.8539523,10.5408971 22.6124883,10.3685136 22.3374649,10.2506596 C22.0624415,10.1328056 21.7563143,10.0738786 21.4190833,10.0738786 C20.9083255,10.0738786 20.4687792,10.2066843 20.1004443,10.4722955 C19.7321094,10.7379068 19.4513564,11.1240106 19.2581852,11.6306069 C19.1468662,11.9366755 19.065014,12.3025506 19.0126286,12.7282322 C18.9602432,13.1539138 18.9340505,13.6323659 18.9340505,14.1635884 C18.9340505,14.5751979 18.9577877,14.9577836 19.0052619,15.3113456 C19.0527362,15.6649077 19.1272217,15.9876869 19.2287184,16.2796834 C19.4284378,16.8144239 19.7255613,17.2330695 20.1200889,17.5356201 C20.5146165,17.8381706 20.9607109,17.9894459 21.4583723,17.9894459 Z M21.44855,16.9182058 C21.1571562,16.9182058 20.926333,16.8100264 20.7560804,16.5936675 C20.5858279,16.3773087 20.4646866,16.0580475 20.3926567,15.6358839 C20.3206268,15.2137203 20.2846118,14.6719437 20.2846118,14.0105541 C20.2846118,13.0360598 20.3689196,12.3148637 20.5375351,11.8469657 C20.7061506,11.3790677 21.0065482,11.1451187 21.4387278,11.1451187 C21.7399439,11.1451187 21.9756782,11.2497801 22.1459308,11.4591029 C22.3161833,11.6684257 22.4373246,11.9780123 22.5093545,12.3878628 C22.5813845,12.7977133 22.6173994,13.3245383 22.6173994,13.9683377 C22.6173994,14.6473175 22.5830215,15.1961302 22.5142657,15.6147757 C22.4455098,16.0334213 22.3260056,16.355321 22.155753,16.5804749 C21.9855005,16.8056288 21.7497661,16.9182058 21.44855,16.9182058 Z M26.4333489,11.3614776 C26.7181946,11.3614776 26.9801216,11.2875989 27.21913,11.1398417 C27.4581384,10.9920844 27.6480355,10.7889182 27.7888213,10.530343 C27.9296071,10.2717678 28,9.99120493 28,9.68865435 C28,9.38258575 27.9296071,9.09938434 27.7888213,8.83905013 C27.6480355,8.57871592 27.4565014,8.37379068 27.2142189,8.22427441 C26.9719364,8.07475814 26.7116464,8 26.4333489,8 C26.2205332,8 26.0191768,8.04309587 25.8292797,8.1292876 C25.6393826,8.21547933 25.4732226,8.33333333 25.3307998,8.4828496 C25.188377,8.63236588 25.0746024,8.81266491 24.9894761,9.0237467 C24.9043499,9.2348285 24.8617867,9.45646438 24.8617867,9.68865435 C24.8617867,10.1495163 25.0156688,10.5435356 25.3234331,10.8707124 C25.6311974,11.1978892 26.0011693,11.3614776 26.4333489,11.3614776 Z M26.4333489,10.4854881 C26.2303555,10.4854881 26.0535547,10.4080915 25.9029467,10.2532982 C25.7523386,10.0985048 25.6770346,9.91029024 25.6770346,9.68865435 C25.6770346,9.46701847 25.7515201,9.27616535 25.9004911,9.11609499 C26.0494621,8.95602463 26.2270814,8.87598945 26.4333489,8.87598945 C26.5610384,8.87598945 26.6829981,8.91204925 26.7992283,8.98416887 C26.9154584,9.05628848 27.0071328,9.15391381 27.0742516,9.27704485 C27.1413704,9.4001759 27.1749298,9.53737907 27.1749298,9.68865435 C27.1749298,9.91380827 27.1020814,10.1029024 26.9563845,10.2559367 C26.8106876,10.408971 26.6363424,10.4854881 26.4333489,10.4854881 Z"
                id="360°" fill="#FFFFFF" fill-rule="nonzero"></path>
            <polyline id="Path-7" stroke="#FFFFFF" stroke-width="1.6" stroke-linecap="round" stroke-linejoin="round"
                points="19.4048836 25 17.1754491 22.6310194 19.182841 20"></polyline>
            <path d="M3,23 C8.5228475,23 13,20.1949211 13,17.2439742 C13,14.2930273 11.1783815,13 11.1783815,13"
                id="Oval-Copy" stroke="#FFFFFF" stroke-width="1.6" stroke-linecap="round"
                transform="translate(8.000000, 18.000000) scale(-1, 1) translate(-8.000000, -18.000000) "></path>
            <path d="M18,23 C24.0751322,23 29,20.1949211 29,17.2439742 C29,14.2930273 26.9962197,13 26.9962197,13"
                id="Oval-Copy-2" stroke="#FFFFFF" stroke-width="1.6" stroke-linecap="round"></path>
        </g>
    </g>
</svg>