<?xml version="1.0" encoding="utf-8"?>
<!-- Generator: Adobe Illustrator 25.4.1, SVG Export Plug-In . SVG Version: 6.00 Build 0)  -->
<svg version="1.1" id="圖層_1" xmlns="http://www.w3.org/2000/svg" xmlns:xlink="http://www.w3.org/1999/xlink" x="0px"
	y="0px" viewBox="0 0 32 32" style="enable-background:new 0 0 32 32;" xml:space="preserve">
	<style type="text/css">
		.st0 {
			fill: none;
			stroke: #FFFFFF;
			stroke-width: 1.6;
			stroke-linecap: round;
		}
	</style>
	<g>
		<g>
			<g id="Symbols_00000017496651800533791020000016330275805124683150_">
				<g id="ic_header_mirror_00000000199602290254839690000012182207267436816565_">
					<path id="Path-8_00000075152332850546585240000005437683797524975757_" class="st0"
						d="M24.8,24.4c-0.2,0-14.9,0-15.2,0
					c-0.8,0-1.5-0.7-1.5-1.5V12.2c0-0.8,0.7-1.5,1.5-1.5h15.9c0.8,0,1.5,0.7,1.5,1.5v10.7c0,0.8-0.7,1.5-1.5,1.5H24.8L24.8,24.4" />
				</g>
			</g>
		</g>
		<g>
			<g id="Symbols_00000096739819525629917610000000501332866601651641_">
				<g id="ic_header_mirror_00000043420285689520034160000002391600026579042489_">
					<path id="Path-8_00000140723160934027703580000009509687443769817988_" class="st0" d="M8.2,21.7c-0.2,0-1.5,0-1.7,0
					c-0.8,0-1.5-0.7-1.5-1.5V9.2c0-0.8,0.7-1.5,1.5-1.5h16.4c0.8,0,1.5,0.7,1.5,1.5v1.4" />
				</g>
			</g>
		</g>
		<path id="Path_2135_00000109710367922817349090000009549656796326157191_" class="st0" d="M15,15.8c0,0.9-0.7,1.6-1.6,1.6
		s-1.6-0.7-1.6-1.6c0-0.9,0.7-1.6,1.6-1.6S15,14.9,15,15.8z" />
		<path id="Path_2136_00000127041359015458760190000012691163233806221449_" class="st0"
			d="M26.4,21.7l-5.2-5.2l-7.9,7.9" />
	</g>
</svg>