<?xml version="1.0" encoding="UTF-8"?>
<svg width="32px" height="32px" viewBox="0 0 32 32" version="1.1" xmlns="http://www.w3.org/2000/svg"
    xmlns:xlink="http://www.w3.org/1999/xlink">
    <g id="Symbols" stroke="none" stroke-width="1" fill="none" fill-rule="evenodd" stroke-linecap="round">
        <g id="ic_header_mirror" stroke="#FFFFFF" stroke-width="1.6">
            <g id="Group" transform="translate(9.000000, 16.000000)">
                <path
                    d="M13.3333333,2.59016219 C12.0757935,1.04974701 9.57588022,-1.26417395e-13 6.69722509,-1.26417395e-13 C3.77116112,-1.26417395e-13 1.23641679,1.08460849 7.46069873e-14,2.66666667"
                    id="Oval"></path>
                <path
                    d="M11.3333333,5.27595498 C10.4530555,4.12064359 8.70311616,3.33333333 6.68805756,3.33333333 C4.63981279,3.33333333 2.86549175,4.1467897 2,5.33333333"
                    id="Oval-Copy-2"></path>
                <path
                    d="M9.33333333,7.96174776 C8.83031741,7.19154017 7.83035209,6.66666667 6.67889004,6.66666667 C5.50846445,6.66666667 4.49456672,7.20897091 4,8"
                    id="Oval-Copy-3"></path>
            </g>
            <path
                d="M7.54783844,24 C7.26998753,24 6.99213662,24 6.71428571,24 C5.76751186,24 5,23.2324881 5,22.2857143 L5,9.71428571 C5,8.76751186 5.76751186,8 6.71428571,8 L25.2857143,8 C26.2324881,8 27,8.76751186 27,9.71428571 L27,22.2857143 C27,23.2324881 26.2324881,24 25.2857143,24 L24.472386,24 L24.472386,24"
                id="Path-8"></path>
        </g>
    </g>
</svg>