<svg xmlns="http://www.w3.org/2000/svg" width="24" height="24" viewBox="0 0 24 24">
  <path fill="#000" d="M14,4.4 C14.8345636,4.4 15.5198898,5.03896152 15.5934613,5.85436739 L15.6,6 L15.599,6.9 L19,6.9 C19.3313708,6.9 19.6,7.16862915 19.6,7.5 C19.6,7.79823376 19.3824104,8.04564675 19.0973231,8.09214701 L19,8.1 L18.551,8.1 L17.5979275,19.5498273 C17.5746043,19.829705 17.3617047,20.0514427 17.0918712,20.0929915 L17,20.1 L7,20.1 C6.71915214,20.1 6.48050002,19.9062501 6.41668633,19.6407991 L6.40207255,19.5498273 L5.448,8.1 L5,8.1 C4.66862915,8.1 4.4,7.83137085 4.4,7.5 C4.4,7.20176624 4.61758961,6.95435325 4.90267688,6.90785299 L5,6.9 L8.399,6.9 L8.4,6 C8.4,5.16543638 9.03896152,4.48011021 9.85436739,4.40653868 L10,4.4 L14,4.4 Z M17.348,8.1 L6.651,8.1 L7.551,18.9 L16.448,18.9 L17.348,8.1 Z M10.5,9.9 C10.7982338,9.9 11.0456468,10.1175896 11.092147,10.4026769 L11.1,10.5 L11.1,16.5 C11.1,16.8313708 10.8313708,17.1 10.5,17.1 C10.2017662,17.1 9.95435325,16.8824104 9.90785299,16.5973231 L9.9,16.5 L9.9,10.5 C9.9,10.1686292 10.1686292,9.9 10.5,9.9 Z M13.5,9.9 C13.7982338,9.9 14.0456468,10.1175896 14.092147,10.4026769 L14.1,10.5 L14.1,16.5 C14.1,16.8313708 13.8313708,17.1 13.5,17.1 C13.2017662,17.1 12.9543532,16.8824104 12.907853,16.5973231 L12.9,16.5 L12.9,10.5 C12.9,10.1686292 13.1686292,9.9 13.5,9.9 Z M14,5.6 L10,5.6 C9.80670034,5.6 9.64542508,5.7371128 9.60812658,5.91938605 L9.6,6 L9.599,6.9 L14.399,6.9 L14.4,6 C14.4,5.80670034 14.2628872,5.64542508 14.080614,5.60812658 L14,5.6 Z"/>
</svg>
