<?xml version="1.0" encoding="UTF-8"?>
<svg width="24px" height="24px" viewBox="0 0 24 24" version="1.1" xmlns="http://www.w3.org/2000/svg"
    xmlns:xlink="http://www.w3.org/1999/xlink">
    <g id="Symbols" stroke="none" stroke-width="1" fill="none" fill-rule="evenodd">
        <g id="icon/viewer/setting" fill-rule="nonzero">
            <g id="manage" transform="translate(5.000000, 5.000000)">
                <rect id="Rectangle" fill="#000000" opacity="0" x="0" y="0" width="14" height="14"></rect>
                <path
                    d="M12.9455066,7.21291967 C12.9455066,6.49094075 13.2649359,5.84177798 13.773962,5.39251613 C14.0117064,5.18576387 14.0693367,4.83940611 13.9113509,4.56680857 L12.7744574,2.62962443 C12.6180406,2.36408755 12.2985728,2.24229043 12.0050793,2.33629902 C11.7547716,2.41486192 11.4939267,2.45470679 11.2315795,2.45445352 C10.0225568,2.45445352 9.01274807,1.62393734 8.76956962,0.516582432 C8.70317336,0.215030458 8.43605133,0.00019006943 8.1272763,0 L5.8727237,0 C5.56359857,0 5.29637707,0.215013706 5.23043038,0.516582432 C4.986565,1.62393734 3.97744319,2.45445352 2.76842046,2.45445352 C2.49845118,2.45445352 2.23809912,2.41323684 1.99423375,2.33629902 C1.7005776,2.24241364 1.38106173,2.36451435 1.22485565,2.63031138 L0.0893360063,4.56680857 C-0.0688125983,4.83924819 -0.011474608,5.18558116 0.226038013,5.39251613 C0.751593534,5.85159734 1.05354626,6.51509213 1.05449336,7.21291967 C1.05354626,7.91074721 0.751593534,8.574242 0.226038013,9.03332321 C-0.0117064243,9.24007547 -0.0693366639,9.58643322 0.0886490723,9.85903077 L1.2255426,11.7962149 C1.38195936,12.0617518 1.70142722,12.1835489 1.9949207,12.0895403 C2.24522843,12.0109774 2.50607331,11.9711325 2.76842046,11.9713858 C3.97744318,11.9713858 4.98725193,12.801902 5.23043038,13.9092569 C5.29637707,14.2115126 5.56428552,14.4258393 5.8727237,14.4258393 L8.1272763,14.4258393 C8.43640143,14.4258393 8.70362293,14.2108256 8.76956962,13.9092569 C9.013435,12.801902 10.0225568,11.9713858 11.2315795,11.9713858 C11.5015488,11.9713858 11.7619009,12.0126025 12.0057663,12.0895403 C12.2994224,12.1834257 12.6189383,12.061325 12.7751444,11.795528 L13.910664,9.85903077 C14.0688126,9.58659115 14.0114746,9.24025818 13.773962,9.03332321 C13.2484065,8.574242 12.9464537,7.91074721 12.9455066,7.21291967 Z M12.0291224,11.0295846 C11.3040271,10.8657392 10.5460564,10.9293032 9.85837702,11.211625 C9.43887473,11.3840153 9.05640959,11.6354161 8.73178767,11.9521514 C8.320202,12.3521852 8.01430296,12.848091 7.8415073,13.3954222 L6.1584927,13.3954222 C5.98539727,12.8482676 5.67926469,12.3526019 5.2675254,11.9528383 C4.59783161,11.3028755 3.70097524,10.9398446 2.76773352,10.9409687 C2.49982508,10.9409687 2.23191663,10.9705074 1.97087762,11.0302715 L1.12799644,9.59318316 C2.40564506,8.26351604 2.40564506,6.1623233 1.12799644,4.83265618 L1.97156457,3.39625475 C2.69666302,3.56005509 3.45461994,3.49649225 4.14230993,3.21421439 C4.56181222,3.04182407 4.94427736,2.79042321 5.26889928,2.47368798 C5.68023531,2.07357791 5.98589431,1.57767864 6.1584927,1.0304171 L7.8415073,1.0304171 C8.01460273,1.57757171 8.32073531,2.07323742 8.7324746,2.47300103 C9.40216839,3.12296381 10.2990248,3.48599471 11.2322665,3.48487062 C11.5001749,3.48487062 11.7680834,3.45533199 12.0291224,3.3955678 L12.8720036,4.83265618 C11.5943549,6.1623233 11.5943549,8.26351604 12.8720036,9.59318316 L12.0291224,11.0295846 L12.0291224,11.0295846 Z M7,4.12166838 C5.29274906,4.12166838 3.90874871,5.50566873 3.90874871,7.21291967 C3.90874871,8.92017061 5.29274906,10.304171 7,10.304171 C8.70725094,10.304171 10.0912513,8.92017061 10.0912513,7.21291967 C10.0912513,5.50566873 8.70725094,4.12166838 7,4.12166838 Z M8.45700977,8.66992944 C8.07148085,9.05772603 7.54682426,9.27515797 7,9.27376062 C6.45317574,9.27515797 5.92851915,9.05772603 5.54299023,8.66992944 C5.15519364,8.28440052 4.9377617,7.75974393 4.93915905,7.21291967 C4.93915905,6.66267694 5.15349256,6.14472061 5.54299023,5.7559099 C5.92851915,5.36811331 6.45317574,5.15068137 7,5.15207872 C7.54682426,5.15068137 8.07148085,5.36811331 8.45700977,5.7559099 C8.84480636,6.14143882 9.0622383,6.66609541 9.06084095,7.21291967 C9.0622383,7.75974393 8.84480636,8.28440052 8.45700977,8.66992944 Z"
                    id="Shape" stroke="#FFFFFF" stroke-width="0.2" fill="#FFFFFF"></path>
            </g>
        </g>
    </g>
</svg>